<?xml version="1.0" encoding="utf-8"?>
<!-- Generator: Adobe Illustrator 23.0.0, SVG Export Plug-In . SVG Version: 6.00 Build 0)  -->
<svg version="1.1" id="Camada_1" xmlns="http://www.w3.org/2000/svg" xmlns:xlink="http://www.w3.org/1999/xlink" x="0px" y="0px"
	 viewBox="0 0 750 500" style="enable-background:new 0 0 750 500;" xml:space="preserve">
<style type="text/css">
	.st0{fill:#97A6F3;}
	.st1{fill:#A3C6E8;}
	.st2{fill:#E48282;}
	.st3{fill:#B85E77;}
	.st4{fill:#252E65;}
	.st5{fill:#742D4E;}
	.st6{fill:#F3D1D3;}
	.st7{fill:#22172C;}
	.st8{fill:#4E5EE6;}
	.st9{fill:#E3EDF6;}
	.st10{fill:#82AACB;}
	.st11{fill:#FFFFFF;}
	.st12{fill:none;stroke:#252E65;stroke-width:0.8269;stroke-linecap:round;stroke-miterlimit:10;}
	.st13{fill:#4E5EE6;stroke:#4E5EE6;stroke-width:2.7611;stroke-linecap:round;stroke-linejoin:round;stroke-miterlimit:10;}
	.st14{fill:none;stroke:#4E5EE6;stroke-width:0.6576;stroke-linecap:round;stroke-linejoin:round;stroke-miterlimit:10;}
</style>
<g>
	<g>
		<g>
			<path class="st0" d="M578.5,248.1c0,2.8-2.3,5.1-5.1,5.1c-2.8,0-5.1-2.3-5.1-5.1c0-2.8,2.3-5.1,5.1-5.1
				C576.2,243,578.5,245.3,578.5,248.1z M576,248.1c0-1.4-1.2-2.6-2.6-2.6c-1.4,0-2.6,1.2-2.6,2.6c0,1.4,1.2,2.6,2.6,2.6
				C574.8,250.7,576,249.5,576,248.1z"/>
			<g>
				<path class="st0" d="M664.4,61h-28.9c-0.7,0-1.3,0.6-1.3,1.3c0,0.7,0.6,1.3,1.3,1.3h28.9c0.7,0,1.3-0.6,1.3-1.3
					C665.7,61.6,665.1,61,664.4,61z"/>
				<path class="st0" d="M626.2,61h-5.7c-0.7,0-1.3,0.6-1.3,1.3c0,0.7,0.6,1.3,1.3,1.3h5.7c0.7,0,1.3-0.6,1.3-1.3
					C627.5,61.6,626.9,61,626.2,61z"/>
				<path class="st0" d="M650.8,71.1c0,0.7-0.6,1.3-1.3,1.3h-3.6c-0.7,0-1.3-0.6-1.3-1.3c0-0.7,0.6-1.3,1.3-1.3h3.6
					C650.2,69.8,650.8,70.4,650.8,71.1z M640.8,71.1c0,0.7-0.6,1.3-1.3,1.3h-6.3c-0.7,0-1.3-0.6-1.3-1.3c0-0.7,0.6-1.3,1.3-1.3h6.3
					C640.3,69.8,640.8,70.4,640.8,71.1z M628.2,71.1c0,0.7-0.6,1.3-1.3,1.3h-6.3c-0.7,0-1.3-0.6-1.3-1.3c0-0.7,0.6-1.3,1.3-1.3h6.3
					C627.6,69.8,628.2,70.4,628.2,71.1z"/>
			</g>
			<g>
				<path class="st0" d="M194.8,145.6c-0.7,0-1.3,0.6-1.3,1.3v2.9c0,0.7,0.6,1.3,1.3,1.3c0.7,0,1.3-0.6,1.3-1.3v-2.9
					C196.1,146.2,195.5,145.6,194.8,145.6z"/>
				<path class="st0" d="M191.5,142.7h-2.9c-0.7,0-1.3,0.6-1.3,1.3c0,0.7,0.6,1.3,1.3,1.3h2.9c0.7,0,1.3-0.6,1.3-1.3
					C192.8,143.3,192.2,142.7,191.5,142.7z"/>
				<path class="st0" d="M194.8,136.6c-0.7,0-1.3,0.6-1.3,1.3v2.9c0,0.7,0.6,1.3,1.3,1.3c0.7,0,1.3-0.6,1.3-1.3v-2.9
					C196.1,137.2,195.5,136.6,194.8,136.6z"/>
				<path class="st0" d="M201.1,142.5h-2.9c-0.7,0-1.3,0.6-1.3,1.3c0,0.7,0.6,1.3,1.3,1.3h2.9c0.7,0,1.3-0.6,1.3-1.3
					C202.4,143.1,201.8,142.5,201.1,142.5z"/>
			</g>
			<g>
				<path class="st0" d="M513.3,63.6c-0.7,0-1.3,0.6-1.3,1.3v2.9c0,0.7,0.6,1.3,1.3,1.3c0.7,0,1.3-0.6,1.3-1.3v-2.9
					C514.6,64.1,514,63.6,513.3,63.6z"/>
				<path class="st0" d="M510,60.6h-2.9c-0.7,0-1.3,0.6-1.3,1.3c0,0.7,0.6,1.3,1.3,1.3h2.9c0.7,0,1.3-0.6,1.3-1.3
					C511.3,61.2,510.7,60.6,510,60.6z"/>
				<path class="st0" d="M513.3,54.5c-0.7,0-1.3,0.6-1.3,1.3v2.9c0,0.7,0.6,1.3,1.3,1.3c0.7,0,1.3-0.6,1.3-1.3v-2.9
					C514.6,55.1,514,54.5,513.3,54.5z"/>
				<path class="st0" d="M519.6,60.4h-2.9c-0.7,0-1.3,0.6-1.3,1.3c0,0.7,0.6,1.3,1.3,1.3h2.9c0.7,0,1.3-0.6,1.3-1.3
					C520.8,61,520.3,60.4,519.6,60.4z"/>
			</g>
			<g>
				<path class="st0" d="M395.3,0.7h-28.9c-0.7,0-1.3,0.6-1.3,1.3c0,0.7,0.6,1.3,1.3,1.3h28.9c0.7,0,1.3-0.6,1.3-1.3
					C396.5,1.2,396,0.7,395.3,0.7z"/>
				<path class="st0" d="M357.1,0.7h-5.7c-0.7,0-1.3,0.6-1.3,1.3c0,0.7,0.6,1.3,1.3,1.3h5.7c0.7,0,1.3-0.6,1.3-1.3
					C358.4,1.2,357.8,0.7,357.1,0.7z"/>
				<path class="st0" d="M381.7,10.8c0,0.7-0.6,1.3-1.3,1.3h-3.6c-0.7,0-1.3-0.6-1.3-1.3c0-0.7,0.6-1.3,1.3-1.3h3.6
					C381.1,9.5,381.7,10.1,381.7,10.8z M371.7,10.8c0,0.7-0.6,1.3-1.3,1.3h-6.3c-0.7,0-1.3-0.6-1.3-1.3c0-0.7,0.6-1.3,1.3-1.3h6.3
					C371.1,9.5,371.7,10.1,371.7,10.8z M359.1,10.8c0,0.7-0.6,1.3-1.3,1.3h-6.3c-0.7,0-1.3-0.6-1.3-1.3c0-0.7,0.6-1.3,1.3-1.3h6.3
					C358.5,9.5,359.1,10.1,359.1,10.8z"/>
			</g>
			<path class="st0" d="M706.3,133.3c0,2.5,2,4.5,4.5,4.5c2.5,0,4.5-2,4.5-4.5c0-2.5-2-4.5-4.5-4.5
				C708.3,128.8,706.3,130.8,706.3,133.3z"/>
			<g>
				<path class="st0" d="M120.3,352.4h28.9c0.7,0,1.3-0.6,1.3-1.3c0-0.7-0.6-1.3-1.3-1.3h-28.9c-0.7,0-1.3,0.6-1.3,1.3
					C119,351.8,119.6,352.4,120.3,352.4z"/>
				<path class="st0" d="M105.4,352.4h5.7c0.7,0,1.3-0.6,1.3-1.3c0-0.7-0.6-1.3-1.3-1.3h-5.7c-0.7,0-1.3,0.6-1.3,1.3
					C104.1,351.8,104.7,352.4,105.4,352.4z"/>
			</g>
			<path class="st0" d="M667.1,373c0,0,1.7,12.3-12.7,12c0,0,12.4,0.1,12,11.7c0,0,1.1-9.1,12.5-11.1
				C679,385.6,669.4,387.8,667.1,373z"/>
			<path class="st0" d="M735.9,199c0,0,1.7,12.3-12.7,12c0,0,12.4,0.1,12,11.7c0,0,1.1-9.1,12.5-11.1
				C747.7,211.6,738.1,213.8,735.9,199z"/>
			<path class="st0" d="M279,32c0,0,1.7,12.3-12.7,12c0,0,12.4,0.1,12,11.7c0,0,1.1-9.1,12.5-11.1C290.8,44.6,281.2,46.8,279,32z"/>
			<path class="st0" d="M155,66.1c0,0,1.7,12.3-12.7,12c0,0,12.4,0.1,12,11.7c0,0,1.1-9.1,12.5-11.1C166.8,78.7,157.2,80.9,155,66.1
				z"/>
			<path class="st0" d="M230.1,13.4c0,0,0.6,4.3-4.4,4.2c0,0,4.3,0,4.2,4.1c0,0,0.4-3.2,4.3-3.9C234.3,17.8,230.9,18.5,230.1,13.4z"
				/>
			<path class="st0" d="M455.7,161.6c0,0,0.6,4.3-4.4,4.2c0,0,4.3,0,4.2,4.1c0,0,0.4-3.2,4.3-3.9C459.9,166,456.5,166.7,455.7,161.6
				z"/>
			<path class="st0" d="M37.8,235.1c0,0,0.6,4.3-4.4,4.2c0,0,4.3,0,4.2,4.1c0,0,0.4-3.2,4.3-3.9C41.9,239.4,38.5,240.2,37.8,235.1z"
				/>
			<path class="st0" d="M412.8,350.9c0,0,0.6,4.3-4.4,4.2c0,0,4.3,0,4.2,4.1c0,0,0.4-3.2,4.3-3.9C417,355.3,413.6,356.1,412.8,350.9
				z"/>
			<g>
				<path class="st0" d="M242.2,281.7h-28.1c-3.6,0-6.5-2.9-6.5-6.5c0-3.5,2.8-6.4,6.3-6.5c0.1-5.5,4.6-9.9,10.1-9.9
					c3.4,0,6.6,1.7,8.4,4.6c3.8-0.5,7.2,1.8,8.1,5.3h1.6c3.6,0,6.5,2.9,6.5,6.5S245.8,281.7,242.2,281.7z M214.1,270.5
					c-2.5,0-4.6,2.1-4.6,4.6c0,2.5,2.1,4.6,4.6,4.6h28.1c2.5,0,4.6-2.1,4.6-4.6c0-2.5-2.1-4.6-4.6-4.6h-3.2l-0.1-0.8
					c-0.5-3.1-3.4-5.2-6.7-4.4l-0.7,0.2l-0.4-0.6c-1.4-2.6-4.2-4.2-7.1-4.2c-4.5,0-8.2,3.7-8.2,8.2c0,0.2,0,0.5,0,0.7l0.1,1H214.1z"
					/>
			</g>
			<g>
				<path class="st0" d="M743.5,43.8h-28.1c-3.6,0-6.5-2.9-6.5-6.5c0-3.5,2.8-6.4,6.3-6.5c0.1-5.5,4.6-9.9,10.1-9.9
					c3.4,0,6.6,1.7,8.5,4.6c3.8-0.5,7.2,1.8,8.1,5.3h1.6c3.6,0,6.5,2.9,6.5,6.5C750,40.9,747.1,43.8,743.5,43.8z M715.4,32.7
					c-2.5,0-4.6,2.1-4.6,4.6c0,2.5,2.1,4.6,4.6,4.6h28.1c2.5,0,4.6-2.1,4.6-4.6c0-2.5-2.1-4.6-4.6-4.6h-3.2l-0.1-0.8
					c-0.5-3.1-3.4-5.2-6.7-4.4l-0.7,0.2l-0.4-0.6c-1.4-2.6-4.2-4.2-7.1-4.2c-4.5,0-8.2,3.7-8.2,8.2c0,0.2,0,0.5,0,0.7l0.1,1H715.4z"
					/>
			</g>
			<g>
				<path class="st0" d="M308.4,115.6h-28.1c-3.6,0-6.5-2.9-6.5-6.5c0-3.5,2.8-6.4,6.3-6.5c0.1-5.5,4.6-9.9,10.1-9.9
					c3.4,0,6.6,1.7,8.5,4.6c3.8-0.5,7.2,1.8,8.1,5.3h1.6c3.6,0,6.5,2.9,6.5,6.5S312,115.6,308.4,115.6z M280.3,104.5
					c-2.5,0-4.6,2.1-4.6,4.6c0,2.5,2.1,4.6,4.6,4.6h28.1c2.5,0,4.6-2.1,4.6-4.6c0-2.5-2.1-4.6-4.6-4.6h-3.2l-0.1-0.8
					c-0.5-3.1-3.4-5.2-6.7-4.4l-0.7,0.2l-0.4-0.6c-1.4-2.6-4.2-4.2-7.1-4.2c-4.5,0-8.2,3.7-8.2,8.2c0,0.2,0,0.5,0,0.7l0.1,1H280.3z"
					/>
			</g>
		</g>
		<g>
			<g>
				<path class="st1" d="M396.4,475.8L396.4,475.8c-12.1,3.4-24.6-3.6-28-15.7l-18-63.7c-3.4-12.1,3.6-24.6,15.7-28v0
					c12.1-3.4,24.6,3.6,28,15.7l18,63.7C415.5,459.9,408.4,472.4,396.4,475.8z"/>
				<path class="st1" d="M370.6,475.3L370.6,475.3c-9-8.8-9.1-23.2-0.3-32.1l46.3-47.3c8.8-9,23.2-9.1,32.1-0.3l0,0
					c9,8.8,9.1,23.2,0.3,32.1L402.8,475C394,483.9,379.6,484.1,370.6,475.3z"/>
				<g>
					<path class="st2" d="M462.9,384.5c6.1,9.1,3.6,21.5-5.5,27.6c-9.1,6.1-21.5,3.6-27.6-5.5c-6.1-9.1-3.6-21.5,5.5-27.6
						C444.4,372.9,456.8,375.4,462.9,384.5z"/>
					<path class="st2" d="M433,392.7L433,392.7c-2.8,0.7-5.6-1-6.3-3.7l-1.8-6.8c-0.7-2.8,1-5.6,3.7-6.3l0,0c2.8-0.7,5.6,1,6.3,3.7
						l1.8,6.8C437.4,389.2,435.8,392,433,392.7z"/>
					<path class="st2" d="M452.9,369.1l-7.1,17.9c-1.1,2.8-4.2,4.1-7,3l0,0c-2.8-1.1-4.1-4.2-3-7l7.1-17.9c1.1-2.8,4.2-4.1,7-3l0,0
						C452.7,363.2,454,366.4,452.9,369.1z"/>
					<path class="st2" d="M465.4,372.9l-8.5,17.2c-1.3,2.7-4.5,3.8-7.2,2.4l0,0c-2.7-1.3-3.8-4.5-2.4-7.2l8.5-17.2
						c1.3-2.7,4.5-3.8,7.2-2.4l0,0C465.6,367,466.7,370.2,465.4,372.9z"/>
					<path class="st2" d="M474.6,382.4l-11.9,15.1c-1.8,2.3-5.2,2.7-7.6,0.9l0,0c-2.3-1.8-2.7-5.2-0.9-7.6l11.9-15.1
						c1.8-2.3,5.2-2.7,7.6-0.9l0,0C476.1,376.7,476.5,380.1,474.6,382.4z"/>
				</g>
			</g>
			<g>
				<g>
					<path class="st2" d="M349.5,346.2l-12.3-0.5c-3.9-0.2-7-3.5-6.8-7.4l1.7-43.3l26.5,1l-1.7,43.3
						C356.7,343.3,353.4,346.4,349.5,346.2z"/>
					<path class="st3" d="M358.6,294.6l-26.5-1l-0.4,10.4c-0.4,10.2,7.9,19.2,18.1,18.4c0.6,0,1.3-0.1,1.9-0.2
						c2.1-0.4,4.1-1.1,5.9-2.2L358.6,294.6z"/>
				</g>
				<g>
					
						<ellipse transform="matrix(0.9622 -0.2723 0.2723 0.9622 -59.8203 103.145)" class="st4" cx="341.8" cy="267.1" rx="33.1" ry="25.5"/>
					
						<ellipse transform="matrix(0.9859 -0.1675 0.1675 0.9859 -39.4134 64.4364)" class="st4" cx="362.3" cy="265.9" rx="29.4" ry="19.1"/>
					
						<ellipse transform="matrix(0.7343 -0.6788 0.6788 0.7343 -81.4695 302.7084)" class="st4" cx="346" cy="255.4" rx="29.4" ry="19.1"/>
					<path class="st2" d="M373.9,288c2.6,14.6-5,28.2-17.1,30.4l0,0c-12,2.1-23.9-8-26.5-22.6l-2.1-11.5c-2.6-14.6,5-28.2,17.1-30.4
						l0,0c12.1-2.2,23.9,8,26.5,22.6L373.9,288z"/>
					<path class="st4" d="M348.2,252.2c-6.7-6-18.3-3.1-25.9,6.5c-7.6,9.6-8.4,22.3-1.8,28.4c6.7,6,18.3,3.1,25.9-6.5
						C354.1,270.9,354.9,258.2,348.2,252.2z"/>
					<g>
						<g>
							<g>
								<g>
									<path class="st5" d="M352.6,284.8c-0.4,0-0.8-0.2-1-0.5c-0.4-0.6-0.2-1.3,0.3-1.7c0.2-0.1,4-2.7,8.1-0.3
										c0.6,0.3,0.8,1.1,0.4,1.7c-0.3,0.6-1.1,0.8-1.7,0.4c-2.7-1.6-5.4,0.2-5.5,0.2C353.1,284.7,352.8,284.8,352.6,284.8z"/>
								</g>
								<g>
									<path class="st5" d="M373.5,284.8c-0.2,0-0.5-0.1-0.7-0.2l0,0c-0.1-0.1-2.8-1.8-5.5-0.2c-0.6,0.3-1.3,0.1-1.7-0.4
										c-0.3-0.6-0.1-1.3,0.4-1.7c4.1-2.4,7.9,0.2,8.1,0.3c0.5,0.4,0.7,1.1,0.3,1.7C374.3,284.6,373.9,284.8,373.5,284.8z"/>
								</g>
								<g>
									<path class="st5" d="M358.1,288c0,0.7-0.6,1.2-1.3,1.2c-0.7,0-1.2-0.6-1.2-1.3c0-0.7,0.6-1.2,1.3-1.2
										C357.5,286.8,358.1,287.3,358.1,288z"/>
								</g>
								<path class="st5" d="M370.2,288.5c0,0.7-0.6,1.2-1.3,1.2c-0.7,0-1.2-0.6-1.2-1.3c0-0.7,0.6-1.2,1.3-1.2
									C369.7,287.2,370.2,287.8,370.2,288.5z"/>
							</g>
							<g>
								<g>
									<path class="st6" d="M373.1,297.3c-0.1,0-0.3,0-0.4,0c-2.7-0.1-5.1-1.2-6.9-3.2c-1.8-1.9-2.7-4.5-2.6-7.1
										c0.1-2.7,1.2-5.1,3.2-6.9c2-1.8,4.5-2.8,7.1-2.6c2.7,0.1,5.1,1.2,6.9,3.2c1.8,1.9,2.7,4.5,2.6,7.1
										c-0.1,2.7-1.2,5.1-3.2,6.9C378,296.4,375.6,297.3,373.1,297.3z M373.1,279.1c-2.1,0-4.1,0.8-5.6,2.2
										c-1.6,1.5-2.6,3.5-2.6,5.7c-0.1,2.2,0.7,4.3,2.2,5.9c1.5,1.6,3.5,2.6,5.7,2.6c2.2,0,4.3-0.7,5.9-2.2
										c1.6-1.5,2.6-3.5,2.6-5.7c0.1-2.2-0.7-4.3-2.2-5.9c-1.5-1.6-3.5-2.6-5.7-2.6C373.3,279.1,373.2,279.1,373.1,279.1z"/>
								</g>
								<g>
									<path class="st6" d="M351.8,297.7c-0.2,0-0.3,0-0.5,0c-6.2-0.2-11-5.4-10.7-11.6c0.1-3,1.4-5.7,3.6-7.8c2.2-2,5-3.1,8-3
										c3,0.1,5.7,1.4,7.8,3.6c2,2.2,3.1,5,3,8c-0.1,3-1.4,5.7-3.6,7.8C357.3,296.6,354.6,297.7,351.8,297.7z M351.8,277.3
										c-2.3,0-4.6,0.9-6.3,2.5c-1.8,1.7-2.9,4-3,6.4l0,0c-0.2,5.1,3.8,9.4,8.9,9.6c2.5,0.1,4.8-0.8,6.7-2.5c1.8-1.7,2.9-4,3-6.4
										c0.1-2.5-0.8-4.8-2.5-6.7c-1.7-1.8-4-2.9-6.4-3C352,277.3,351.9,277.3,351.8,277.3z"/>
								</g>
								<g>
									<path class="st6" d="M361,288.3l4.1,0.2c0.5,0,0.9-0.4,0.9-0.8l0,0c0-0.5-0.4-0.9-0.8-0.9l-4.1-0.2c-0.5,0-0.9,0.4-0.9,0.8
										l0,0C360.2,287.8,360.5,288.3,361,288.3z"/>
								</g>
							</g>
							<g>
								<path class="st5" d="M369.2,294.1c-0.1,1.4-1.8,2.8-3.7,2.9c-1.9,0.2-3.4-0.8-3.3-2.3c0.1-1.4,1.8-2.8,3.7-2.9
									C367.9,291.6,369.3,292.6,369.2,294.1z"/>
							</g>
							<g>
								<path class="st5" d="M368.4,301.9c-0.1,3.3-3.2,5.9-6.8,5.8s-5.7-3.7-5.6-7.1C360.3,300.2,364.4,300.6,368.4,301.9z"/>
								<path class="st6" d="M362.1,303.9c-2.9-0.3-4.6-1.3-4.8-3.5c3.6-0.2,7.1,0.2,10.5,1.2C367.3,303.6,364.9,304.3,362.1,303.9z
									"/>
							</g>
						</g>
						<g>
							<g>
								<g>
									<path class="st7" d="M353.6,309L353.6,309l-7.1,0c-2.9,0-5.6-1.1-7.8-3l-4.5-4c-0.4-0.3-0.4-0.9-0.1-1.2
										c0.3-0.4,0.9-0.4,1.2-0.1l4.5,4c1.8,1.6,4.2,2.5,6.6,2.5l7.1,0c0.5,0,0.9,0.4,0.9,0.9C354.5,308.6,354.1,309,353.6,309z"/>
								</g>
								<g>
									<path class="st6" d="M353.6,309.9L353.6,309.9l-2.9,0c-1,0-1.7-0.8-1.7-1.7c0-1,0.8-1.7,1.7-1.7h0l2.9,0
										c1,0,1.7,0.8,1.7,1.7C355.4,309.1,354.6,309.9,353.6,309.9z"/>
								</g>
							</g>
							<g>
								
									<ellipse transform="matrix(0.3405 -0.9402 0.9402 0.3405 -57.579 503.9095)" class="st8" cx="330.4" cy="293" rx="14.5" ry="14.5"/>
								
									<ellipse transform="matrix(3.929282e-02 -0.9992 0.9992 3.929282e-02 22.7166 609.4617)" class="st0" cx="328.3" cy="292.9" rx="12.4" ry="11.3"/>
								<path class="st9" d="M330.1,293c-0.1,2.8-1.9,4.9-4.1,4.9c-2.1-0.1-3.8-2.4-3.7-5.2c0.1-2.8,1.9-4.9,4.1-4.9
									C328.5,287.9,330.2,290.2,330.1,293z"/>
							</g>
						</g>
					</g>
				</g>
			</g>
			<g>
				<path class="st1" d="M365.4,495.3l-69.3,2c-11.6-0.5-20.6-10.2-20.1-21.7l4.4-116c0.2-6.1,4.2-11.3,10-13.2l51.7-16.5l41.3,19.8
					c5.2,2.5,8.4,7.8,8.2,13.6l-4.4,112C386.7,486.8,377,495.8,365.4,495.3z"/>
				<path class="st10" d="M391.6,363.3c0.2,12.1,0.1,24.2-0.1,36.3c-0.2,12.1-0.6,24.2-1,36.2c-0.5,12.1-1,24.1-1.8,36.2
					c-0.2,2.9-0.3,6.2-1.4,9.2c-1,3-2.7,5.8-4.9,8c-4.5,4.4-10.8,6.8-16.8,6.2c6.1-0.1,11.9-2.8,15.6-7.3c1.9-2.2,3.3-4.8,4.1-7.5
					c0.8-2.8,0.8-5.6,0.9-8.7c0.2-12.1,0.6-24.2,1-36.2c0.5-12.1,1-24.1,1.8-36.2C389.6,387.4,390.4,375.3,391.6,363.3z"/>
				<path class="st1" d="M361.1,351.8l-37.4-2.4l1.5-23.5c0.1-2.1,1.9-3.7,4-3.5l29.9,1.9c2.1,0.1,3.7,1.9,3.5,4L361.1,351.8z"/>
			</g>
			<g>
				<g>
					<path class="st1" d="M249.6,461.3L249.6,461.3c-11.6-4.8-17.1-18.1-12.3-29.7l25.4-61.1c4.8-11.6,18.1-17.1,29.7-12.3h0
						c11.6,4.8,17.1,18.1,12.3,29.7l-25.4,61.1C274.5,460.6,261.2,466.1,249.6,461.3z"/>
					<path class="st10" d="M292.4,358.2c4.1,1.3,7.8,3.9,10.5,7.4c2.7,3.5,4.4,7.8,4.8,12.3c0.6,4.4-0.8,9.2-2.5,13l-4.8,11.8
						c-3.3,7.8-6.6,15.6-10.1,23.4l-5.3,11.6c-1.9,3.8-3.7,7.7-5.7,11.4c1.3-4.1,2.7-8.1,4.1-12.1l4.4-11.9c3-8,6.2-15.8,9.4-23.7
						l5-11.7c0.8-2,1.7-3.8,2.1-5.7c0.5-1.9,0.7-3.9,0.7-5.9C304.9,370,300,362.1,292.4,358.2z"/>
				</g>
				<g>
					<g>
						<g>
							<path class="st5" d="M355.3,429.3l-11.6-0.7c-4.3-0.3-7.6-4-7.4-8.4l0.3-5.2c0.3-4.3,4-7.6,8.4-7.4l11.6,0.7L355.3,429.3z
								 M344.8,412.8c-1.5-0.1-2.8,1-2.9,2.5l-0.3,5.2c-0.1,1.5,1,2.8,2.5,2.9l6.4,0.4l0.7-10.6L344.8,412.8z"/>
						</g>
						<g>
							<path class="st3" d="M366.6,445.9l-10-0.6c-6.1-0.4-10.7-5.6-10.3-11.7l2.1-32.2c0.2-3.6,32.2-1.5,32,2.1l-2.1,32.2
								C377.9,441.7,372.6,446.3,366.6,445.9z"/>
							<path class="st5" d="M377.2,404.3c-0.1,1.3-6,2-13.3,1.5c-7.2-0.5-13.1-1.9-13-3.2c0.1-1.3,6-2,13.3-1.5
								C371.4,401.6,377.2,403,377.2,404.3z"/>
						</g>
					</g>
					<path class="st1" d="M237,440.9L237,440.9c0.2-12.5,10.5-22.5,23.1-22.4l66.2,1c12.5,0.2,22.5,10.5,22.4,23.1l0,0
						c-0.2,12.5-10.5,22.5-23.1,22.4l-66.2-1C246.8,463.8,236.8,453.4,237,440.9z"/>
					<path class="st10" d="M260.1,418.5c8.5-0.6,17-0.8,25.5-0.9c8.5-0.2,17-0.1,25.5,0l12.7,0.3c4.2,0,9.1,0.6,12.9,2.9
						c4,2.1,7.2,5.4,9.4,9.3c2.1,3.9,3,8.3,2.6,12.6c-0.5-8.5-5.8-16.2-13.1-19.4c-1.8-0.8-3.7-1.4-5.7-1.7
						c-1.9-0.4-3.9-0.3-6.1-0.3l-12.7-0.1c-8.5-0.2-17-0.4-25.5-0.8C277.1,419.9,268.6,419.4,260.1,418.5z"/>
					<g>
						
							<ellipse transform="matrix(0.6386 -0.7696 0.7696 0.6386 -209.7343 428.8245)" class="st2" cx="351.7" cy="437.7" rx="19.9" ry="19.9"/>
						<path class="st2" d="M341.4,428.2L341.4,428.2c-2.5-0.9-3.8-3.6-2.9-6.1l2.1-6.1c0.9-2.5,3.6-3.8,6.1-2.9l0,0
							c2.5,0.9,3.8,3.6,2.9,6.1l-2.1,6.1C346.6,427.7,343.8,429,341.4,428.2z"/>
						<path class="st2" d="M379.5,430.8l-17.7,1.6c-2.7,0.3-5.2-1.8-5.4-4.5l0,0c-0.3-2.7,1.8-5.2,4.5-5.4l17.7-1.6
							c2.7-0.3,5.2,1.8,5.4,4.5l0,0C384.2,428.1,382.2,430.5,379.5,430.8z"/>
						<path class="st2" d="M375.7,447l-17.7-1.1c-2.7-0.2-4.8-2.5-4.6-5.3l0,0c0.2-2.7,2.5-4.8,5.3-4.6l17.7,1.1
							c2.7,0.2,4.8,2.5,4.6,5.3l0,0C380.8,445.1,378.5,447.2,375.7,447z"/>
					</g>
				</g>
			</g>
		</g>
		<g>
			<g>
				<g>
					<path class="st8" d="M555.7,386.7c-0.5,0-1.1-0.2-1.5-0.6c-0.8-0.8-0.8-2.1,0-2.9l19.8-19.8c0.8-0.8,2.1-0.8,2.9,0
						c0.8,0.8,0.8,2.1,0,2.9L557.2,386C556.8,386.5,556.2,386.7,555.7,386.7z"/>
				</g>
				<g>
					<g>
						<path class="st8" d="M541.6,374.5c-1.1,0-2.1-0.9-2.1-2.1v-28c0-1.1,0.9-2.1,2.1-2.1s2.1,0.9,2.1,2.1v28
							C543.7,373.6,542.7,374.5,541.6,374.5z"/>
					</g>
					<g>
						<path class="st8" d="M595.9,400.8h-28c-1.1,0-2.1-0.9-2.1-2.1c0-1.1,0.9-2.1,2.1-2.1h28c1.1,0,2.1,0.9,2.1,2.1
							C598,399.8,597,400.8,595.9,400.8z"/>
					</g>
				</g>
			</g>
			<g>
				<g>
					<path class="st10" d="M347,487.9h171.5c4.8,0,6.3-3.9,6.3-8.7l0,0H338.3l0,0C338.3,484.1,342.2,487.9,347,487.9z"/>
					<path class="st10" d="M337,479.3h60.8c0,4.8-4.4,8.7-9.8,8.7h-39.8c-0.1,0-11.3,0-11.4,0C331.2,487.9,331.4,479.3,337,479.3z"
						/>
					<g>
						<path class="st9" d="M401.6,481.8h123.1c3.7,0,6.8-2.6,7.5-6.2l16.6-71.2c0.9-4.7-2.7-9-7.5-9H418.2c-3.7,0-6.8,2.6-7.5,6.2
							l-16.6,71.2C393.2,477.5,396.8,481.8,401.6,481.8z"/>
						<path class="st10" d="M410.7,401.6c0.4-2,1.5-3.6,3-4.8c2.3,1.7,3.6,4.5,3,7.6l-16.6,71.2c-0.4,2-1.5,3.6-3,4.8
							c-2.3-1.7-3.6-4.5-3-7.6L410.7,401.6z"/>
						<g>
							<path class="st11" d="M488.1,447.7H468c-4.1,0-7.5-3.4-7.5-7.5l0,0c0-4.1,3.4-7.5,7.5-7.5h20.2c4.1,0,7.5,3.4,7.5,7.5l0,0
								C495.6,444.3,492.3,447.7,488.1,447.7z"/>
						</g>
					</g>
				</g>
				<g>
					<path class="st10" d="M355.4,481.7h-6.1c-1.2,0-2.2-1-2.2-2.2l0,0c0-1.2,1-2.2,2.2-2.2h6.1c1.2,0,2.2,1,2.2,2.2l0,0
						C357.6,480.7,356.6,481.7,355.4,481.7z"/>
					<path class="st10" d="M367.2,481.7h-6.1c-1.2,0-2.2-1-2.2-2.2l0,0c0-1.2,1-2.2,2.2-2.2h6.1c1.2,0,2.2,1,2.2,2.2l0,0
						C369.4,480.7,368.4,481.7,367.2,481.7z"/>
					<path class="st10" d="M379,481.7H373c-1.2,0-2.2-1-2.2-2.2l0,0c0-1.2,1-2.2,2.2-2.2h6.1c1.2,0,2.2,1,2.2,2.2l0,0
						C381.2,480.7,380.2,481.7,379,481.7z"/>
					<path class="st10" d="M390.9,481.7h-6.1c-1.2,0-2.2-1-2.2-2.2l0,0c0-1.2,1-2.2,2.2-2.2h6.1c1.2,0,2.2,1,2.2,2.2l0,0
						C393,480.7,392.1,481.7,390.9,481.7z"/>
				</g>
			</g>
		</g>
		<path class="st4" d="M616.5,497.9h-518c-2.9,0-5.2-2.3-5.2-5.2l0,0c0-2.9,2.3-5.2,5.2-5.2h518c2.9,0,5.2,2.3,5.2,5.2l0,0
			C621.7,495.5,619.3,497.9,616.5,497.9z"/>
		<g>
			<g>
				<path class="st12" d="M176,455.6c0,0-3.8-28.6-10.7-35.7"/>
				<g>
					<path class="st6" d="M166.4,402.8c1.8,6.1,1.5,11.6-0.8,12.3c-2.3,0.7-5.7-3.7-7.5-9.8c0-0.1,0-0.1-0.1-0.2
						c-1.6-5.4,6.6-7.9,8.4-2.5C166.4,402.7,166.4,402.8,166.4,402.8z"/>
					<g>
						<path class="st6" d="M177.4,416.5c-6.1,1.8-11.6,1.5-12.3-0.8c-0.7-2.3,3.7-5.7,9.8-7.5c0.1,0,0.1,0,0.2-0.1
							c5.4-1.6,7.9,6.6,2.5,8.4C177.5,416.4,177.5,416.4,177.4,416.5z"/>
						<path class="st6" d="M156.5,422.8c6.1-1.8,10.5-5.2,9.8-7.5c-0.7-2.3-6.2-2.7-12.3-0.8c-0.1,0-0.1,0-0.2,0.1
							c-5.4,1.7-2.9,9.9,2.5,8.4C156.4,422.8,156.5,422.8,156.5,422.8z"/>
					</g>
					<g>
						<path class="st6" d="M166.8,429.7c1.7-6.1,1.2-11.6-1.1-12.3c-2.3-0.6-5.6,3.8-7.3,9.9c0,0.1,0,0.1-0.1,0.2
							c-1.4,5.5,6.8,7.8,8.4,2.3C166.8,429.8,166.8,429.8,166.8,429.7z"/>
						<path class="st6" d="M172.7,427.9c-4.8-4.2-7.5-9-5.9-10.8c1.6-1.8,6.8,0.1,11.6,4.2c0,0,0.1,0.1,0.1,0.1
							c4.2,3.8-1.4,10.2-5.7,6.6C172.8,428,172.7,428,172.7,427.9z"/>
					</g>
					<path class="st3" d="M168.5,415.9c0.5,1.6-0.4,3.2-2,3.7c-1.6,0.5-3.2-0.4-3.7-2c-0.5-1.6,0.4-3.2,2-3.7
						C166.3,413.5,168,414.4,168.5,415.9z"/>
				</g>
				<g>
					<path class="st8" d="M164.8,437.1c7.9,6.2,12.4,13.7,10.1,16.7c-2.4,3-10.7,0.4-18.6-5.9c-7.9-6.2-10.1-16.7-10.1-16.7
						S156.9,430.9,164.8,437.1z"/>
					<path class="st8" d="M192.6,446.6c-8.4,7.9-17.6,11.7-20.5,8.5c-3-3.2,1.4-12.1,9.8-20c8.4-7.9,20.5-8.5,20.5-8.5
						S201,438.7,192.6,446.6z"/>
				</g>
			</g>
			<g>
				<polygon class="st4" points="186.5,489.2 159.1,489.2 154.3,454.7 191.3,454.7 				"/>
				<path class="st4" d="M193.2,463.6h-40.8c-0.8,0-1.5-0.7-1.5-1.5v-9.9c0-0.8,0.7-1.5,1.5-1.5h40.8c0.8,0,1.5,0.7,1.5,1.5v9.9
					C194.7,462.9,194,463.6,193.2,463.6z"/>
			</g>
		</g>
		<g>
			<g>
				<g>
					<polygon class="st8" points="256.4,197.2 269.9,211.7 373.5,168.6 					"/>
					<polygon class="st0" points="261.2,149.1 251,164.5 257.9,179.6 242.4,182.3 228.7,212.4 376.8,167.6 					"/>
					<polygon class="st8" points="257.9,179.6 251,164.5 331.2,168.3 					"/>
				</g>
				<g>
					<path class="st8" d="M250.1,329.2c-1.1,0-2.3,0-3.4,0c-1.1,0-2.1-1-2.1-2.1c0-1.1,1-2.2,2.1-2.1c5.4,0.1,10.7,0,16.6-0.3
						c0,0,0.1,0,0.1,0c1.1,0,2,0.9,2.1,2c0,1.1-0.8,2.1-2,2.2C258.8,329.1,254.4,329.2,250.1,329.2z M230,328.3c-0.1,0-0.1,0-0.2,0
						c-5.7-0.5-11.3-1.2-16.7-2.2c-1.1-0.2-1.9-1.3-1.7-2.4c0.2-1.1,1.3-1.8,2.4-1.7c5.3,0.9,10.8,1.7,16.4,2.1
						c1.1,0.1,2,1.1,1.9,2.2C232,327.5,231.1,328.3,230,328.3z M197.3,322.3c-0.2,0-0.4,0-0.6-0.1c-5.5-1.7-10.8-3.7-15.8-6.1
						c-1-0.5-1.5-1.7-1-2.8c0.5-1,1.7-1.5,2.8-1c4.9,2.3,10,4.3,15.3,5.9c1.1,0.3,1.7,1.5,1.4,2.6
						C199,321.8,198.1,322.3,197.3,322.3z M167.2,308.2c-0.4,0-0.8-0.1-1.1-0.3c-4.7-3.1-9.2-6.7-13.4-10.5
						c-0.8-0.8-0.9-2.1-0.1-2.9c0.8-0.8,2.1-0.9,2.9-0.1c4,3.7,8.3,7.1,12.9,10.1c1,0.6,1.2,1.9,0.6,2.9
						C168.5,307.9,167.9,308.2,167.2,308.2z M142.7,285.7c-0.6,0-1.2-0.3-1.6-0.8c-3.5-4.4-6.7-9.2-9.5-14.1c-0.6-1-0.2-2.3,0.8-2.8
						c1-0.6,2.3-0.2,2.8,0.8c2.7,4.7,5.8,9.3,9.2,13.5c0.7,0.9,0.6,2.2-0.3,2.9C143.6,285.5,143.2,285.7,142.7,285.7z M126.3,256.8
						c-0.8,0-1.6-0.5-1.9-1.3c-2-5.4-3.6-10.9-4.7-16.4c-0.2-1.1,0.5-2.2,1.6-2.4c1.1-0.2,2.2,0.5,2.4,1.6c1,5.2,2.5,10.5,4.5,15.7
						c0.4,1.1-0.1,2.3-1.2,2.7C126.8,256.8,126.5,256.8,126.3,256.8z M119.6,224.2c-1.1,0-2-0.8-2.1-1.9c-0.2-3.4-0.3-7-0.3-10.6
						v-0.8c0-1.8,0-3.6,0.1-5.4c0-1.1,1-2,2.1-2c0,0,0,0,0.1,0c1.1,0,2,1,2,2.1c-0.1,1.8-0.1,3.5-0.1,5.3v0.8c0,3.6,0.1,7,0.3,10.3
						c0.1,1.1-0.8,2.1-1.9,2.2C119.7,224.2,119.7,224.2,119.6,224.2z"/>
				</g>
				<g>
					<path class="st8" d="M137.1,191.3c-3.2,0-6.3,0-9.4-0.1c-1.1,0-2.1-1-2-2.1c0-1.1,1-2,2.1-2c0,0,0,0,0.1,0
						c5.4,0.1,10.9,0.1,16.6,0c1.3-0.1,2.1,0.9,2.1,2c0,1.1-0.9,2.1-2,2.1C142,191.3,139.5,191.3,137.1,191.3z M161.1,190.6
						c-1.1,0-2-0.9-2.1-2c-0.1-1.1,0.8-2.1,2-2.2c5.4-0.3,10.9-0.7,16.6-1.2c1.1-0.1,2.2,0.7,2.3,1.9c0.1,1.1-0.7,2.1-1.9,2.3
						c-5.7,0.5-11.3,0.9-16.7,1.2C161.2,190.6,161.2,190.6,161.1,190.6z M111.1,190.3c-0.1,0-0.1,0-0.2,0
						c-5.8-0.4-11.4-1.1-16.7-1.8c-1.1-0.2-1.9-1.2-1.8-2.3c0.2-1.1,1.2-1.9,2.3-1.8c5.2,0.7,10.8,1.4,16.5,1.8
						c1.1,0.1,2,1.1,1.9,2.2C113.1,189.5,112.2,190.3,111.1,190.3z M194.4,187.7c-1,0-1.9-0.8-2.1-1.8c-0.1-1.1,0.7-2.2,1.8-2.3
						c5.4-0.6,10.9-1.3,16.5-2.1c1.1-0.2,2.2,0.6,2.3,1.8c0.2,1.1-0.6,2.2-1.8,2.3c-5.6,0.8-11.2,1.5-16.6,2.2
						C194.6,187.7,194.5,187.7,194.4,187.7z M78.1,185.6c-0.2,0-0.3,0-0.5-0.1c-4-0.9-7.9-1.9-11.6-3c-1.6-0.5-3.1-1-4.6-1.5
						c-1.1-0.4-1.7-1.5-1.3-2.6c0.4-1.1,1.5-1.7,2.6-1.3c1.5,0.5,3,1,4.5,1.4c3.6,1.1,7.4,2.1,11.4,2.9c1.1,0.3,1.8,1.4,1.6,2.5
						C79.9,184.9,79.1,185.6,78.1,185.6z M46.6,174.9c-0.3,0-0.6-0.1-0.9-0.2c-5.3-2.6-10.2-5.5-14.7-8.6c-0.9-0.7-1.1-2-0.5-2.9
						c0.7-0.9,2-1.2,2.9-0.5c4.2,3,9,5.8,14.1,8.3c1,0.5,1.5,1.7,1,2.8C48.1,174.5,47.4,174.9,46.6,174.9z M118.1,173
						c-1.1,0-2.1-0.9-2.1-2.1v-0.7c0-5.2-0.2-10.6-0.6-15.8c-0.1-1.1,0.8-2.1,1.9-2.2c1.1-0.1,2.1,0.8,2.2,1.9
						c0.4,5.4,0.6,10.8,0.6,16.1v0.7C120.2,172.1,119.2,173,118.1,173z M19.8,155.4c-0.6,0-1.1-0.2-1.5-0.7
						c-3.9-4.3-7.2-8.9-10-13.9c-0.6-1-0.2-2.3,0.8-2.8c1-0.5,2.3-0.2,2.8,0.8c2.6,4.7,5.7,9.1,9.4,13.1c0.8,0.8,0.7,2.2-0.1,2.9
						C20.8,155.3,20.3,155.4,19.8,155.4z M115.4,139.7c-1,0-1.9-0.7-2-1.7c-1-5.6-2.2-11-3.7-16c-0.3-1.1,0.3-2.3,1.4-2.6
						c1.1-0.3,2.3,0.3,2.6,1.4c1.5,5.2,2.8,10.7,3.8,16.5c0.2,1.1-0.6,2.2-1.7,2.4C115.6,139.7,115.5,139.7,115.4,139.7z M3.8,126.5
						c-0.9,0-1.7-0.6-2-1.5c-0.3-0.9-0.5-1.9-0.7-2.8C0.4,119,0,115.9,0,112.9c0-1.8,0.1-3.6,0.4-5.3c0.2-1.1,1.2-1.9,2.4-1.7
						c1.1,0.2,1.9,1.2,1.7,2.4c-0.2,1.5-0.4,3.1-0.4,4.7c0,2.7,0.3,5.4,1,8.2c0.2,0.9,0.4,1.8,0.7,2.7c0.3,1.1-0.3,2.3-1.4,2.6
						C4.2,126.5,4,126.5,3.8,126.5z M105.8,107.9c-0.8,0-1.5-0.4-1.9-1.2c-2.5-5.2-5.3-9.8-8.5-13.7c-0.7-0.9-0.6-2.2,0.3-2.9
						c0.9-0.7,2.2-0.6,2.9,0.3c3.4,4.2,6.4,9.1,9,14.5c0.5,1,0.1,2.3-1,2.8C106.4,107.8,106.1,107.9,105.8,107.9z M9,94.8
						c-0.4,0-0.9-0.1-1.3-0.4c-0.9-0.7-1.1-2-0.4-2.9c3.3-4.4,7.7-8.2,13-11.5c1-0.6,2.3-0.3,2.9,0.7c0.6,1,0.3,2.3-0.7,2.9
						c-4.9,3-8.8,6.5-11.9,10.5C10.2,94.6,9.6,94.8,9,94.8z M84.8,82.5c-0.4,0-0.8-0.1-1.1-0.3c-4.4-2.9-9.3-5-14.6-6.3
						c-1.1-0.3-1.8-1.4-1.5-2.5c0.3-1.1,1.4-1.8,2.5-1.5c5.7,1.4,11,3.7,15.8,6.9c1,0.6,1.2,1.9,0.6,2.9
						C86.1,82.2,85.5,82.5,84.8,82.5z M36.7,77.2c-0.9,0-1.7-0.6-2-1.5c-0.3-1.1,0.3-2.3,1.4-2.6c5.2-1.5,10.7-2.5,16.3-3l0.6,0
						c1,0.1,2.1,0.9,2.1,2c0,1.1-0.9,2.1-2,2.1l-0.5,0c-5.2,0.4-10.5,1.3-15.4,2.8C37.1,77.2,36.9,77.2,36.7,77.2z"/>
				</g>
			</g>
			<g>
				<g>
					<path class="st8" d="M536.3,91.3h111c13.9,0,25.1,11.2,25.1,25.1v57.2c0,13.9-11.2,25.1-25.1,25.1h-72.6l-26.1,23v-23h-12.3
						c-13.9,0-25.1-11.2-25.1-25.1v-57.2C511.2,102.6,522.4,91.3,536.3,91.3z"/>
					<g>
						<g>
							<path class="st0" d="M552.4,126.8h78.7c1.7,0,3.1-1.4,3.1-3.1c0-1.7-1.4-3.1-3.1-3.1h-78.7c-1.7,0-3.1,1.4-3.1,3.1
								C549.3,125.4,550.7,126.8,552.4,126.8z"/>
						</g>
						<g>
							<path class="st0" d="M552.4,147.8h78.7c1.7,0,3.1-1.4,3.1-3.1c0-1.7-1.4-3.1-3.1-3.1h-78.7c-1.7,0-3.1,1.4-3.1,3.1
								C549.3,146.3,550.7,147.8,552.4,147.8z"/>
						</g>
						<g>
							<path class="st0" d="M619.6,168.7h11.5c1.7,0,3.1-1.4,3.1-3.1c0-1.7-1.4-3.1-3.1-3.1h-11.5c-1.7,0-3.1,1.4-3.1,3.1
								C616.4,167.3,617.8,168.7,619.6,168.7z"/>
						</g>
						<g>
							<path class="st0" d="M593.4,168.7h11.5c1.7,0,3.1-1.4,3.1-3.1c0-1.7-1.4-3.1-3.1-3.1h-11.5c-1.7,0-3.1,1.4-3.1,3.1
								C590.2,167.3,591.6,168.7,593.4,168.7z"/>
						</g>
						<g>
							<path class="st0" d="M552.4,168.7h26.2c1.7,0,3.1-1.4,3.1-3.1c0-1.7-1.4-3.1-3.1-3.1h-26.2c-1.7,0-3.1,1.4-3.1,3.1
								C549.3,167.3,550.7,168.7,552.4,168.7z"/>
						</g>
					</g>
				</g>
				<g>
					<path class="st0" d="M522.2,205.7h-85c-8.4,0-15.1,6.8-15.1,15.1v49c0,8,6.2,14.5,14,15.1l-17.5,28.7l46.2-28.7h57.4
						c8.4,0,15.1-6.8,15.1-15.1v-49C537.4,212.4,530.6,205.7,522.2,205.7z"/>
					<g>
						
							<ellipse transform="matrix(0.7071 -0.7071 0.7071 0.7071 -24.519 407.6084)" class="st13" cx="479.8" cy="233.4" rx="10.1" ry="10.1"/>
						<path class="st13" d="M503.5,267.2H456l0,0c0-8.4,6.8-15.2,15.2-15.2h17.1C496.7,252,503.5,258.8,503.5,267.2L503.5,267.2z"/>
					</g>
				</g>
			</g>
			<g>
				<g>
					<g>
						<path class="st8" d="M419.7,126c-2.8,0-5.6-0.3-8.4-0.9c-1.1-0.2-1.8-1.3-1.6-2.5c0.2-1.1,1.4-1.8,2.5-1.6
							c4.3,0.9,8.8,1,13,0.4c1.1-0.2,2.2,0.6,2.4,1.7c0.2,1.1-0.6,2.2-1.7,2.4C423.8,125.8,421.7,126,419.7,126z M438.5,121.1
							c-0.7,0-1.4-0.4-1.8-1.1c-0.6-1-0.2-2.3,0.8-2.8c3.8-2.1,7.2-4.9,10.1-8.2c0.7-0.9,2.1-1,2.9-0.2c0.9,0.7,1,2.1,0.2,2.9
							c-3.2,3.7-7,6.8-11.2,9.2C439.2,121.1,438.9,121.1,438.5,121.1z M399,120c-0.4,0-0.8-0.1-1.1-0.3c-4.1-2.6-7.7-5.9-10.7-9.8
							c-0.7-0.9-0.5-2.2,0.4-2.9c0.9-0.7,2.2-0.5,2.9,0.4c2.7,3.5,5.9,6.4,9.6,8.8c1,0.6,1.3,1.9,0.7,2.9
							C400.3,119.7,399.7,120,399,120z M456.2,100.6c-0.2,0-0.5,0-0.7-0.1c-1.1-0.4-1.6-1.6-1.2-2.7c1.5-4.1,2.3-8.4,2.3-12.8
							c0-1.1,0.9-2.1,2.1-2.1c1.1,0,2.1,0.9,2.1,2.1c0,4.9-0.9,9.7-2.6,14.3C457.9,100.1,457.1,100.6,456.2,100.6z M382.5,98.5
							c-0.9,0-1.7-0.6-2-1.5c-1.2-3.9-1.8-8-1.8-12.1c0-0.8,0-1.5,0.1-2.3c0.1-1.1,1.1-2,2.2-2c1.1,0.1,2,1,2,2.2
							c0,0.7-0.1,1.4-0.1,2.1c0,3.7,0.6,7.4,1.6,10.9c0.3,1.1-0.3,2.3-1.4,2.6C382.9,98.5,382.7,98.5,382.5,98.5z M457.5,77.6
							c-0.9,0-1.8-0.6-2-1.6c-1.1-4.3-2.8-8.3-5.3-11.9c-0.6-0.9-0.4-2.2,0.5-2.9c0.9-0.7,2.2-0.4,2.9,0.5c2.8,4,4.8,8.5,5.9,13.2
							c0.3,1.1-0.4,2.2-1.5,2.5C457.8,77.6,457.7,77.6,457.5,77.6z M384,71.5c-0.3,0-0.6-0.1-0.8-0.2c-1.1-0.5-1.5-1.7-1.1-2.7
							c2-4.5,4.7-8.5,8.1-12.1c0.8-0.8,2.1-0.9,2.9-0.1c0.8,0.8,0.9,2.1,0.1,2.9c-3.1,3.2-5.5,6.8-7.2,10.8
							C385.5,71,384.8,71.5,384,71.5z M442.2,55.3c-0.4,0-0.8-0.1-1.2-0.4c-3.6-2.5-7.5-4.4-11.8-5.5c-1.1-0.3-1.8-1.4-1.5-2.5
							c0.3-1.1,1.4-1.8,2.5-1.5c4.7,1.3,9.1,3.3,13.1,6.2c0.9,0.7,1.2,2,0.5,2.9C443.5,55,442.9,55.3,442.2,55.3z M402.8,51.9
							c-0.8,0-1.5-0.4-1.9-1.2c-0.5-1-0.1-2.3,1-2.8c4.4-2.1,9.1-3.4,14-3.9c1.1-0.1,2.2,0.7,2.3,1.9c0.1,1.1-0.7,2.2-1.9,2.3
							c-4.4,0.4-8.6,1.6-12.6,3.5C403.4,51.9,403.1,51.9,402.8,51.9z"/>
					</g>
					<g>
						<path class="st8" d="M419.7,65.2c-15,0-27.2,8.1-27.2,18c0,0,0,0,0,0.1c0,2.6,2.1,4.4,4,3.6l7.1-3c1.7-0.7,2.6-3.2,1.8-5.3
							l-0.9-2.4c0,0,13.1,2.3,30.3,0l-0.9,3.1c-0.6,1.9,0.2,4.1,1.7,4.9l7.1,3.9c1.7,0.9,3.7-0.3,4.1-2.7c0.1-0.7,0.2-1.3,0.2-2
							C446.9,73.3,434.7,65.2,419.7,65.2z"/>
						<path class="st0" d="M438.5,104.7h-37.7l5.6-17.5c1-3.3,4.1-5.5,7.5-5.5h11.5c3.4,0,6.5,2.2,7.5,5.5L438.5,104.7z"/>
					</g>
				</g>
				<g>
					<g>
						<path class="st8" d="M662.8,339.3c-2.8,0-5.6-0.3-8.4-0.9c-1.1-0.2-1.8-1.3-1.6-2.5c0.2-1.1,1.4-1.8,2.5-1.6
							c4.3,0.9,8.8,1,13,0.4c1.1-0.2,2.2,0.6,2.4,1.7c0.2,1.1-0.6,2.2-1.7,2.4C667,339.2,664.9,339.3,662.8,339.3z M681.7,334.5
							c-0.7,0-1.4-0.4-1.8-1.1c-0.6-1-0.2-2.3,0.8-2.8c3.8-2.1,7.2-4.9,10.1-8.2c0.7-0.9,2.1-1,2.9-0.2c0.9,0.7,1,2.1,0.2,2.9
							c-3.2,3.7-7,6.8-11.2,9.1C682.4,334.4,682,334.5,681.7,334.5z M642.1,333.4c-0.4,0-0.8-0.1-1.1-0.3c-4.1-2.6-7.7-5.9-10.7-9.8
							c-0.7-0.9-0.5-2.2,0.4-2.9c0.9-0.7,2.2-0.5,2.9,0.4c2.7,3.5,5.9,6.4,9.6,8.8c1,0.6,1.3,1.9,0.7,2.9
							C643.5,333,642.8,333.4,642.1,333.4z M699.4,313.9c-0.2,0-0.5,0-0.7-0.1c-1.1-0.4-1.6-1.6-1.2-2.7c1.5-4.1,2.3-8.4,2.3-12.8
							c0-1.1,0.9-2.1,2.1-2.1c1.1,0,2.1,0.9,2.1,2.1c0,4.9-0.9,9.7-2.6,14.3C701,313.4,700.2,313.9,699.4,313.9z M625.6,311.9
							c-0.9,0-1.7-0.6-2-1.5c-1.2-3.9-1.8-8-1.8-12.1c0-0.8,0-1.5,0.1-2.3c0.1-1.1,1.2-2,2.2-2c1.1,0.1,2,1,2,2.2
							c0,0.7-0.1,1.4-0.1,2.1c0,3.7,0.5,7.4,1.6,10.9c0.3,1.1-0.3,2.3-1.4,2.6C626,311.8,625.8,311.9,625.6,311.9z M700.7,291
							c-0.9,0-1.8-0.6-2-1.6c-1.1-4.3-2.9-8.3-5.3-11.9c-0.6-0.9-0.4-2.2,0.5-2.9c0.9-0.7,2.2-0.4,2.9,0.5c2.8,4,4.8,8.5,5.9,13.2
							c0.3,1.1-0.4,2.2-1.5,2.5C701,291,700.8,291,700.7,291z M627.1,284.8c-0.3,0-0.6-0.1-0.8-0.2c-1.1-0.5-1.5-1.7-1.1-2.7
							c2-4.5,4.7-8.5,8.1-12.1c0.8-0.8,2.1-0.9,2.9-0.1c0.8,0.8,0.9,2.1,0.1,2.9c-3.1,3.2-5.5,6.8-7.2,10.8
							C628.7,284.3,627.9,284.8,627.1,284.8z M685.4,268.6c-0.4,0-0.8-0.1-1.2-0.4c-3.6-2.6-7.6-4.4-11.8-5.5
							c-1.1-0.3-1.8-1.4-1.5-2.5c0.3-1.1,1.4-1.8,2.5-1.5c4.7,1.3,9.1,3.3,13.1,6.2c0.9,0.7,1.2,2,0.5,2.9
							C686.7,268.3,686,268.6,685.4,268.6z M645.9,265.3c-0.8,0-1.5-0.4-1.9-1.2c-0.5-1-0.1-2.3,1-2.8c4.4-2.1,9.1-3.4,14-3.9
							c1.2-0.1,2.2,0.7,2.3,1.9c0.1,1.1-0.7,2.2-1.9,2.3c-4.4,0.4-8.6,1.6-12.6,3.5C646.5,265.2,646.2,265.3,645.9,265.3z"/>
					</g>
					<g>
						<rect x="638.4" y="290.9" class="st0" width="48.3" height="27.4"/>
						<g>
							<g>
								<path class="st8" d="M680,288.7v-3.4c0-2.5,2-4.5,4.5-4.5l0,0c2.5,0,4.5,2,4.5,4.5v5.6H680"/>
								<path class="st9" d="M680.1,285.3v28.5h-32.9v-28.5c0-2.5,2-4.5,4.5-4.5h32.6l-0.9,0.2C681.5,281.6,680.1,283.3,680.1,285.3
									z"/>
							</g>
							<g>
								<rect x="649.2" y="285.5" class="st8" width="7.3" height="7.5"/>
								<g>
									<g>
										<line class="st14" x1="658.8" y1="285.5" x2="677.3" y2="285.5"/>
										<line class="st14" x1="658.8" y1="288" x2="677.3" y2="288"/>
										<line class="st14" x1="658.8" y1="290.5" x2="677.3" y2="290.5"/>
										<line class="st14" x1="659" y1="293" x2="677.5" y2="293"/>
									</g>
									<line class="st14" x1="649.2" y1="295.5" x2="677.3" y2="295.5"/>
									<line class="st14" x1="649.2" y1="298" x2="677.3" y2="298"/>
									<line class="st14" x1="649.2" y1="300.5" x2="677.3" y2="300.5"/>
									<line class="st14" x1="649.2" y1="303" x2="662.9" y2="303"/>
								</g>
							</g>
						</g>
						<polygon class="st8" points="674.8,318.3 638.4,318.3 638.4,290.9 						"/>
						<polygon class="st8" points="650.2,318.3 686.7,318.3 686.7,290.9 						"/>
						<path class="st8" d="M686.7,318.3h-24.1h-24.1l21.7-11.6c1.5-1,3.4-1,4.9,0L686.7,318.3z"/>
					</g>
				</g>
			</g>
		</g>
	</g>
</g>
</svg>
