<svg width="83" height="55" viewBox="0 0 83 55" fill="none" xmlns="http://www.w3.org/2000/svg">
<path d="M54.8203 46.5792C46.4729 45.7306 47.578 39.4356 47.578 39.4356C47.578 39.4356 53.9322 47.4672 62.7335 41.3103C69.8771 36.3176 67.6866 24.2801 67.6866 19.2874C67.6866 12.3609 74.4158 10.8809 74.4158 10.8809C60.03 8.78911 66.1277 29.2924 61.7468 34.0877C57.6224 38.6067 51.4063 35.2915 51.4063 35.2915C56.5963 35.7059 61.1745 28.1479 60.622 22.0502C60.0694 15.9722 56.5371 15.7551 56.5371 15.7551C60.1286 26.8455 52.5114 32.5485 48.9396 30.2397C45.3678 27.9308 54.2874 17.9455 53.7152 9.14431C53.1034 -0.604139 41.5395 0.00760688 41.5395 0.00760688C41.5395 0.00760688 29.9755 -0.604139 29.344 9.14431C28.7718 17.9455 37.6914 27.9308 34.1196 30.2397C30.5478 32.5485 22.9306 26.8455 26.5221 15.7551C26.5221 15.7551 23.0095 15.9722 22.4372 22.0502C21.8847 28.1281 26.4629 35.7059 31.6529 35.2915C31.6529 35.2915 25.4368 38.6067 21.3124 34.0877C16.9315 29.2924 23.0292 8.80884 8.64337 10.8809C8.64337 10.8809 15.3726 12.3412 15.3726 19.2874C15.3726 24.2801 13.2019 36.3176 20.3257 41.3103C29.1072 47.4672 35.4812 39.4356 35.4812 39.4356C35.4812 39.4356 36.5863 45.7504 28.2389 46.5792C19.8916 47.4277 7.97242 40.4814 0 54.3937C0 54.3937 7.95269 47.6251 19.1022 50.1707C24.0949 51.3153 41.5 57.6103 41.5 43.2442C41.5 57.6103 58.9051 51.3153 63.8978 50.1707C75.0473 47.6053 83 54.3937 83 54.3937C75.0868 40.5012 63.1479 47.4277 54.8203 46.5792ZM37.2178 25.7206C37.2178 25.7206 39.0333 26.5692 39.132 29.9239C39.1517 29.9239 36.5468 30.5357 37.2178 25.7206ZM52.097 8.69044C52.768 15.6762 49.1764 20.7083 49.1764 20.7083C48.6436 22.2475 48.3279 20.6293 50.025 15.1236C51.2287 11.1966 50.2815 7.23014 48.9593 5.15811C47.6372 3.08607 44.7561 2.23752 44.5193 1.62577C44.5193 1.62577 51.4261 1.70471 52.097 8.69044ZM43.9272 29.9239C44.0259 26.5692 45.8414 25.7206 45.8414 25.7206C46.5321 30.5357 43.9272 29.9239 43.9272 29.9239Z" fill="white"/>
<path d="M50.318 43.3823C46.8449 41.6852 45.3056 38.2515 45.3056 38.2515C32.8339 40.8761 36.0308 21.8331 36.0308 21.8331C32.2616 26.1153 31.4723 35.9032 35.9518 40.3038C40.4117 44.7242 50.318 43.3823 50.318 43.3823Z" fill="white"/>
<path d="M37.9019 38.2713C37.9019 38.2713 36.3627 41.6852 32.8895 43.402C32.8895 43.402 42.7761 44.7439 47.2557 40.3433C51.7352 35.9427 50.9459 26.135 47.1767 21.8726C47.1767 21.8528 50.3736 40.8958 37.9019 38.2713Z" fill="white"/>
</svg>
